<svg width="20" height="20" viewBox="0 0 20 20" fill="none" xmlns="http://www.w3.org/2000/svg">
<g id="Frame">
<path id="Vector" fill-rule="evenodd" clip-rule="evenodd" d="M5.22007 8.22C5.3607 8.07955 5.55132 8.00066 5.75007 8.00066C5.94882 8.00066 6.13945 8.07955 6.28007 8.22L10.0001 11.94L13.7201 8.22C13.7887 8.14631 13.8715 8.08721 13.9635 8.04622C14.0555 8.00523 14.1548 7.98319 14.2556 7.98141C14.3563 7.97963 14.4563 7.99816 14.5497 8.03588C14.6431 8.0736 14.7279 8.12974 14.7991 8.20096C14.8703 8.27218 14.9265 8.35701 14.9642 8.4504C15.0019 8.54379 15.0204 8.64382 15.0187 8.74452C15.0169 8.84523 14.9948 8.94454 14.9539 9.03654C14.9129 9.12854 14.8538 9.21134 14.7801 9.28L10.5301 13.53C10.3894 13.6705 10.1988 13.7493 10.0001 13.7493C9.80132 13.7493 9.6107 13.6705 9.47007 13.53L5.22007 9.28C5.07962 9.13938 5.00073 8.94875 5.00073 8.75C5.00073 8.55125 5.07962 8.36063 5.22007 8.22Z" fill="currentColor"/>
</g>
</svg>
