<svg width="20" height="20" viewBox="0 0 20 20" fill="none" xmlns="http://www.w3.org/2000/svg">
<path d="M16.5548 5.41195C15.6782 4.16111 14.463 3.1863 13.0518 2.60195C13.8427 3.9936 14.4043 5.50362 14.7148 7.07395C15.4056 6.61233 16.0255 6.05244 16.5548 5.41195ZM13.3258 7.82495C12.9872 5.73747 12.1604 3.75946 10.9128 2.05195C10.3061 1.98301 9.69349 1.98301 9.08677 2.05195C7.83914 3.75946 7.01237 5.73747 6.67377 7.82495C7.72557 8.27195 8.85693 8.50156 9.99977 8.49995C11.1798 8.49995 12.3038 8.25995 13.3258 7.82495ZM6.51377 9.37595C7.62928 9.7901 8.80987 10.0014 9.99977 9.99995C11.2258 9.99995 12.3998 9.77995 13.4858 9.37595C13.5449 10.6392 13.4267 11.9045 13.1348 13.1349C12.1076 13.3784 11.0554 13.5009 9.99977 13.4999C8.92077 13.4999 7.87177 13.3729 6.86577 13.1339C6.57354 11.9039 6.45505 10.6389 6.51377 9.37595ZM5.28477 7.07395C5.5954 5.50397 6.15692 3.9943 6.94777 2.60295C5.53657 3.1873 4.32135 4.16211 3.44477 5.41295C3.97377 6.05095 4.59377 6.61295 5.28477 7.07395ZM17.3338 6.79795C17.899 8.0911 18.1109 9.51111 17.9478 10.9129C16.9705 11.6264 15.9016 12.205 14.7698 12.6329C14.9998 11.3332 15.0583 10.0089 14.9438 8.69395C15.8323 8.18734 16.6383 7.54797 17.3338 6.79795ZM2.66577 6.79795C3.36123 7.54798 4.1672 8.18735 5.05577 8.69395C4.94238 10.0093 5.00087 11.3337 5.22977 12.6339C4.09801 12.2059 3.02906 11.6274 2.05177 10.9139C1.88895 9.51202 2.10118 8.092 2.66677 6.79895L2.66577 6.79795ZM9.99977 14.9999C10.8978 14.9999 11.7778 14.9209 12.6328 14.7699C12.2048 15.9017 11.6262 16.9707 10.9128 17.9479C10.3061 18.0168 9.69349 18.0168 9.08677 17.9479C8.3733 16.9707 7.79477 15.9017 7.36677 14.7699C8.22177 14.9209 9.10178 14.9999 9.99977 14.9999ZM14.3568 14.3569C14.0359 15.4155 13.5982 16.4352 13.0518 17.3969C14.0259 16.9935 14.911 16.4022 15.6565 15.6567C16.402 14.9111 16.9934 14.0261 17.3968 13.0519C16.4438 13.5939 15.4258 14.0329 14.3568 14.3569ZM6.94777 17.3969C5.97367 16.9935 5.08857 16.4022 4.34305 15.6567C3.59752 14.9111 3.00617 14.0261 2.60277 13.0519C3.55577 13.5939 4.57377 14.0329 5.64277 14.3569C5.96368 15.4155 6.40137 16.4352 6.94777 17.3969Z" fill="currentColor"/>
</svg>
