<svg width="24" height="24" viewBox="0 0 24 24" fill="none" xmlns="http://www.w3.org/2000/svg">
<g id="zoomin">
<path id="Vector" fill-rule="evenodd" clip-rule="evenodd" d="M12 4C12.1929 4 12.3779 4.08141 12.5143 4.22633C12.6506 4.37124 12.7273 4.56779 12.7273 4.77273V11.7273H19.2727C19.4656 11.7273 19.6506 11.8087 19.787 11.9536C19.9234 12.0985 20 12.2951 20 12.5C20 12.7049 19.9234 12.9015 19.787 13.0464C19.6506 13.1913 19.4656 13.2727 19.2727 13.2727H12.7273V20.2273C12.7273 20.4322 12.6506 20.6288 12.5143 20.7737C12.3779 20.9186 12.1929 21 12 21C11.8071 21 11.6221 20.9186 11.4857 20.7737C11.3494 20.6288 11.2727 20.4322 11.2727 20.2273V13.2727H4.72727C4.53439 13.2727 4.3494 13.1913 4.21301 13.0464C4.07662 12.9015 4 12.7049 4 12.5C4 12.2951 4.07662 12.0985 4.21301 11.9536C4.3494 11.8087 4.53439 11.7273 4.72727 11.7273H11.2727V4.77273C11.2727 4.56779 11.3494 4.37124 11.4857 4.22633C11.6221 4.08141 11.8071 4 12 4Z" fill="#262A45"/>
</g>
</svg>
